<svg width="465" height="103" xmlns="http://www.w3.org/2000/svg">
  <g fill-rule="nonzero" fill="none">
    <path d="M90.498 55.914c0 25.148-20.229 45.48-45.249 45.48C20.229 101.395 0 81.063 0 55.915c0-25.148 20.229-45.48 45.249-45.48 25.02 0 45.249 20.332 45.249 45.48" fill="#FFF"/>
    <path d="M29.279 55.914c0-1.204-.133-2.274-.533-3.344-.399-.936-.931-1.873-1.73-2.675-.665-.803-1.597-1.338-2.528-1.74a8.68 8.68 0 0 0-3.327-.668H17.3c-.266 0-.532.134-.798.268-.267.267-.267.535-.267.802V62.87c0 .268.133.535.267.803.266.267.532.267.798.267h3.86c1.197 0 2.262-.267 3.327-.669.931-.4 1.863-.936 2.528-1.738.666-.803 1.331-1.606 1.73-2.676.267-.669.533-1.739.533-2.943m-2.13 0c0 1.204-.266 2.274-.798 3.21-.532.937-1.198 1.74-2.13 2.275-.931.535-1.996.802-3.194.802h-2.661V49.494h2.661c1.198 0 2.263.267 3.195.802.931.535 1.597 1.338 2.129 2.274.532.937.798 2.14.798 3.344m33.139 6.689-5.99-14.313c-.132-.535-.532-.803-1.064-.803s-.798.268-1.065.803l-5.855 14.179c-.133.401-.133.802 0 1.07.266.401.532.535.931.535.133 0 .4 0 .533-.134.133-.133.399-.267.399-.535l1.198-2.943h7.586l1.197 2.943c.133.268.266.402.4.535.133.134.399.134.665.134.4 0 .665-.134.932-.535.133-.134.266-.535.133-.936m-3.993-3.88h-6.122l3.061-7.49 3.061 7.49Zm-11.845 3.88L38.462 48.29c-.133-.535-.533-.803-1.065-.803-.532 0-.799.268-1.065.803l-5.855 14.179c-.134.401-.134.802 0 1.07.266.401.532.535.931.535.133 0 .4 0 .532-.134.134-.133.4-.267.4-.535l1.197-2.943h7.586l1.198 2.943c.133.268.266.402.4.535.132.134.399.134.665.134.4 0 .665-.134.931-.535.267-.134.267-.535.133-.936m-3.859-3.88h-6.122l3.061-7.49 3.061 7.49Zm35.135-2.809c0-1.204-.134-2.274-.533-3.344-.4-.936-.931-1.873-1.73-2.675-.665-.803-1.597-1.338-2.529-1.74a8.68 8.68 0 0 0-3.327-.668h-3.86c-.265 0-.531.134-.798.268-.266.267-.266.535-.266.802V62.87c0 .268.133.535.266.803.267.267.533.267.799.267h3.86c1.197 0 2.262-.267 3.326-.669.932-.4 1.864-.936 2.53-1.738.665-.803 1.33-1.606 1.73-2.676.398-.669.532-1.739.532-2.943m-1.997 0c0 1.204-.266 2.274-.798 3.21-.533.937-1.198 1.74-2.13 2.275-.931.535-1.996.802-3.194.802h-2.661V49.494h2.661c1.198 0 2.263.267 3.194.802.932.535 1.597 1.338 2.13 2.274.532.937.798 2.14.798 3.344" fill="#0060AF"/>
    <path d="M373.57 25.95c.267.268.4.67.4 1.07v14.581c0 1.338-.267 2.542-.932 3.612-.532 1.07-1.464 1.873-2.395 2.408-1.065.535-2.263.936-3.594.936-1.33 0-2.528-.267-3.593-.936-1.065-.535-1.863-1.472-2.396-2.408-.532-1.07-.931-2.274-.931-3.612 0-.401.133-.802.399-1.07.266-.267.665-.401 1.065-.401.399 0 .798.134 1.064.401.267.268.4.669.4 1.07 0 .803.133 1.605.532 2.274.4.67.799 1.204 1.33 1.472.533.401 1.332.535 1.997.535.799 0 1.464-.134 1.996-.535.533-.402 1.065-.803 1.464-1.472.4-.669.533-1.337.533-2.274v-14.58c0-.402.133-.803.399-1.07.266-.268.665-.402 1.065-.402.532 0 .931.134 1.197.402Zm23.69 20.2c.266.534.133 1.07-.133 1.47-.267.402-.666.67-1.198.67-.266 0-.533-.134-.799-.268s-.399-.401-.532-.669L393 43.34h-10.38l-1.598 4.013c-.133.268-.4.535-.532.67-.266.133-.532.267-.799.267-.532 0-.931-.268-1.197-.67-.267-.4-.267-.936-.134-1.47l8.119-19.53c.266-.67.798-1.07 1.464-1.07.665 0 1.197.4 1.464 1.07l7.852 19.53Zm-5.457-5.351-4.126-10.3-4.258 10.3h8.384Zm28.214-15.25c-.4 0-.798.134-1.065.402-.266.267-.399.668-.399 1.07v8.293h-13.441v-8.293c0-.402-.133-.803-.4-1.07-.266-.268-.665-.402-1.064-.402-.4 0-.799.134-1.065.402-.266.267-.4.668-.4 1.07v19.797c0 .401.134.803.4 1.07.266.268.665.402 1.065.402.399 0 .798-.134 1.064-.402.267-.267.4-.669.4-1.07v-8.695h13.441v8.695c0 .401.133.803.4 1.07.266.268.665.402 1.064.402.4 0 .799-.134 1.065-.402.266-.267.4-.669.4-1.07V27.155c0-.402-.134-.803-.4-1.07-.266-.402-.532-.536-1.065-.536Zm23.556 20.467c.4.535.4 1.07.133 1.605-.266.535-.665.802-1.33.802-.267 0-.533 0-.799-.133a1.042 1.042 0 0 1-.532-.535l-4.925-8.026h-4.258v7.223c0 .401-.133.803-.4 1.07-.266.268-.665.401-1.064.401-.4 0-.799-.133-1.065-.4-.266-.268-.4-.67-.4-1.071V27.288c0-.401.134-.802.4-1.07.266-.267.666-.401 1.065-.401h5.19c1.464 0 2.795.267 3.86.936 1.064.67 1.996 1.472 2.661 2.542.666 1.07.932 2.274.932 3.745 0 1.338-.266 2.542-.932 3.478-.665 1.07-1.464 1.873-2.661 2.408-.133 0-.267.134-.267.134l4.392 6.956Zm-7.985-9.23c.932 0 1.73-.134 2.396-.535.665-.402 1.197-.803 1.597-1.472.399-.669.532-1.337.532-2.14 0-.803-.133-1.605-.532-2.274a4.6 4.6 0 0 0-1.597-1.605c-.666-.402-1.464-.535-2.396-.535h-3.726v8.427h3.726v.134Zm27.948 8.695h-11.578v-7.224h8.25c.4 0 .8-.134 1.066-.401.266-.268.399-.535.399-1.07s-.133-.803-.4-.937c-.266-.267-.665-.4-1.064-.4h-8.251v-7.09h11.578c.4 0 .799-.134 1.065-.402.266-.267.399-.535.399-.936 0-.402-.133-.803-.4-1.07-.265-.268-.665-.402-1.064-.402h-13.042c-.4 0-.799.134-1.065.402-.266.267-.4.668-.4 1.07v19.797c0 .401.134.803.4 1.07.266.268.665.402 1.065.402h13.042c.4 0 .799-.134 1.065-.402.266-.267.399-.669.399-1.07s-.133-.802-.4-.936c-.265-.268-.665-.401-1.064-.401ZM380.358 63.673c.266.267.399.535.399.936s0 .669-.266 1.07l-7.852 12.04v6.821c0 .402-.133.803-.4 1.07-.266.268-.665.402-1.064.402-.4 0-.799-.134-1.065-.402-.266-.267-.4-.668-.4-1.07v-6.822l-7.718-12.039c-.266-.401-.4-.802-.266-1.204 0-.401.266-.669.532-.936.266-.268.666-.401.932-.401s.532.133.798.267.4.401.533.669l6.787 10.835 6.92-10.969c.133-.267.4-.401.533-.535.266-.134.532-.134.798-.134.266.134.666.268.799.402Zm18.898 2.541c.4 0 .798-.133 1.065-.401.266-.268.399-.535.399-.936 0-.402-.133-.803-.4-1.07-.266-.268-.665-.402-1.064-.402h-13.042c-.4 0-.799.134-1.065.401-.266.268-.4.67-.4 1.07V84.54c0 .402.134.803.4 1.07.266.268.665.402 1.065.402h13.042c.4 0 .798-.134 1.065-.402.266-.267.399-.668.399-1.07 0-.401-.133-.802-.4-.936-.266-.268-.665-.401-1.064-.401h-11.579v-7.224h8.252c.399 0 .798-.134 1.064-.401.267-.268.4-.535.4-1.07 0-.402-.133-.803-.4-1.07-.266-.268-.665-.402-1.064-.402h-8.252v-7.09h11.579v.268Zm24.62 17.791c.267.535.134 1.07-.132 1.472-.267.4-.666.668-1.198.668-.266 0-.533-.133-.799-.267s-.399-.401-.532-.669l-1.597-4.013h-10.38l-1.598 4.013c-.133.268-.399.535-.532.669-.266.134-.532.267-.799.267-.532 0-.931-.267-1.197-.668-.267-.402-.267-.937-.133-1.472l8.118-19.53c.266-.669.798-1.07 1.464-1.07.665 0 1.197.401 1.464 1.07l7.852 19.53Zm-5.323-5.35-4.125-10.3-4.26 10.3h8.385Zm25.153 5.083c.4.535.4 1.07.133 1.605-.266.535-.665.802-1.33.802-.267 0-.533 0-.799-.133a1.042 1.042 0 0 1-.532-.535l-4.924-8.026h-4.259v7.223c0 .401-.133.803-.4 1.07-.266.268-.665.401-1.064.401-.4 0-.799-.133-1.065-.4-.266-.268-.399-.67-.399-1.071V65.01c0-.4.133-.802.4-1.07.265-.267.665-.401 1.064-.401h5.19c1.464 0 2.795.267 3.86.936 1.064.67 1.996 1.472 2.661 2.542.666 1.07.932 2.274.932 3.745 0 1.338-.266 2.542-.932 3.478-.665 1.07-1.464 1.873-2.661 2.408-.133 0-.266.134-.266.134l4.391 6.956Zm-7.985-9.23c.932 0 1.73-.134 2.396-.535.665-.402 1.198-.803 1.597-1.472.4-.669.532-1.337.532-2.14 0-.803-.133-1.605-.532-2.274a4.6 4.6 0 0 0-1.597-1.605c-.666-.401-1.464-.535-2.396-.535h-3.726v8.427h3.726v.134Zm26.75.669c-1.33-1.204-3.06-1.873-5.323-2.14-1.464-.134-2.662-.402-3.46-.803-.799-.402-1.331-.803-1.597-1.338a3.718 3.718 0 0 1-.4-1.739c0-1.204.533-2.006 1.464-2.541.932-.535 2.13-.803 3.594-.803.798 0 1.464.134 2.13.401.665.268 1.064.535 1.596.937.4.4.799.802 1.065 1.471.266.401.532.669.931.803.4.133.799.133 1.198-.134.266-.268.532-.535.532-.936 0-.402 0-.803-.399-1.204-.532-.803-1.064-1.472-1.73-2.007-.665-.535-1.464-1.07-2.262-1.338-.932-.267-1.864-.535-3.061-.535-1.464 0-2.928.268-4.126.67a6.75 6.75 0 0 0-2.928 2.006c-.665.936-1.064 2.006-1.064 3.21 0 1.74.665 3.21 1.996 4.414 1.33 1.204 3.194 1.873 5.59 2.14 1.863.134 3.193.67 3.992 1.472.798.803 1.198 1.74 1.198 2.81 0 .802-.266 1.47-.666 2.006-.532.535-1.064.936-1.863 1.204a7.713 7.713 0 0 1-2.529.4 7.501 7.501 0 0 1-2.395-.4c-.799-.268-1.33-.535-1.863-.937-.533-.401-.932-.802-1.198-1.337a1.203 1.203 0 0 0-.799-.803c-.399-.134-.665-.268-1.064-.134-.533.134-.799.268-1.065.669-.266.401-.266.669 0 1.07.4.937.932 1.74 1.863 2.408.799.669 1.863 1.204 2.928 1.605s2.263.535 3.593.535c1.065 0 1.997-.134 3.061-.401.932-.268 1.864-.669 2.662-1.204.799-.535 1.331-1.204 1.863-2.006.4-.803.666-1.74.666-2.943-.266-1.873-.932-3.344-2.13-4.548ZM239.953 51.366c1.33 0 2.262-1.07 2.262-2.274a2.249 2.249 0 0 0-2.262-2.274c-1.331 0-2.263 1.07-2.263 2.274s1.065 2.274 2.263 2.274Zm6.255 0c1.33 0 2.262-1.07 2.262-2.274a2.249 2.249 0 0 0-2.262-2.274c-1.331 0-2.263 1.07-2.263 2.274s.932 2.274 2.263 2.274Zm-12.51-.134c1.33 0 2.262-1.07 2.262-2.274a2.249 2.249 0 0 0-2.262-2.274c-1.198 0-2.263 1.07-2.263 2.274 0 1.338.932 2.274 2.263 2.274Zm-6.388 0c1.33 0 2.262-1.07 2.262-2.274a2.249 2.249 0 0 0-2.262-2.274c-1.331 0-2.263 1.07-2.263 2.274s1.065 2.274 2.263 2.274Zm-2.795-6.42c1.33 0 2.262-1.07 2.262-2.274a2.249 2.249 0 0 0-2.262-2.274c-1.331 0-2.263 1.07-2.263 2.274-.133 1.204.932 2.274 2.263 2.274Zm6.92 0c1.331 0 2.263-1.07 2.263-2.274s-1.065-2.274-2.263-2.274c-1.33 0-2.262 1.07-2.262 2.274s.931 2.274 2.262 2.274Zm6.655 0c1.33 0 2.262-1.07 2.262-2.274a2.249 2.249 0 0 0-2.262-2.274c-1.198 0-2.263 1.07-2.263 2.274s1.065 2.274 2.263 2.274Zm6.52 0c1.332 0 2.263-1.07 2.263-2.274s-1.064-2.274-2.262-2.274-2.263 1.07-2.263 2.274.932 2.274 2.263 2.274Zm-2.528-6.154c1.331 0 2.263-1.07 2.263-2.274 0-1.203-1.065-2.274-2.263-2.274s-2.262 1.07-2.262 2.274.931 2.274 2.262 2.274Zm-7.053 0c1.33 0 2.262-1.07 2.262-2.274a2.249 2.249 0 0 0-2.262-2.274c-1.331 0-2.263 1.07-2.263 2.274a2.249 2.249 0 0 0 2.263 2.274Zm-7.187.268c1.33 0 2.262-1.07 2.262-2.274a2.249 2.249 0 0 0-2.262-2.274c-1.198 0-2.262 1.07-2.262 2.274-.134 1.338.931 2.274 2.262 2.274Zm-7.985.669c1.33 0 2.262-1.07 2.262-2.274a2.249 2.249 0 0 0-2.262-2.274c-1.331 0-2.263 1.07-2.263 2.274s1.065 2.274 2.263 2.274Zm-3.061 5.484c1.33 0 2.262-1.07 2.262-2.274a2.249 2.249 0 0 0-2.262-2.274c-1.33 0-2.263 1.07-2.263 2.274s1.065 2.274 2.263 2.274Zm-5.856-4.013c1.331 0 2.263-1.07 2.263-2.274a2.249 2.249 0 0 0-2.263-2.274c-1.33 0-2.262 1.07-2.262 2.274-.133 1.338.931 2.274 2.262 2.274Zm-3.593-7.223c1.33 0 2.262-1.07 2.262-2.274a2.249 2.249 0 0 0-2.262-2.274c-1.198 0-2.263 1.07-2.263 2.274s.932 2.274 2.263 2.274ZM214 35.716c1.331 0 2.263-1.07 2.263-2.274A2.249 2.249 0 0 0 214 31.168c-1.198 0-2.262 1.07-2.262 2.274A2.249 2.249 0 0 0 214 35.716Zm3.194-5.217c1.331 0 2.263-1.07 2.263-2.274a2.249 2.249 0 0 0-2.263-2.274c-1.33 0-2.262 1.07-2.262 2.274-.133 1.204.931 2.274 2.262 2.274Zm5.723 3.611c1.33 0 2.262-1.07 2.262-2.274s-1.064-2.274-2.262-2.274-2.263 1.07-2.263 2.274 1.065 2.274 2.263 2.274Zm5.456-7.49c1.331 0 2.263-1.07 2.263-2.275 0-1.203-1.065-2.274-2.263-2.274-1.33 0-2.262 1.07-2.262 2.274s.932 2.274 2.262 2.274Zm2.662 6.688c1.33 0 2.263-1.07 2.263-2.274s-1.065-2.274-2.263-2.274c-1.33 0-2.262 1.07-2.262 2.274s.931 2.274 2.262 2.274Zm7.453-.402c1.33 0 2.262-1.07 2.262-2.274 0-1.203-1.064-2.274-2.262-2.274-1.331 0-2.263 1.07-2.263 2.274s1.065 2.274 2.263 2.274Zm5.323-16.185c1.331 0 2.263-1.07 2.263-2.274s-.932-2.408-2.263-2.408c-1.33 0-2.262 1.07-2.262 2.274s.931 2.408 2.262 2.408Zm-18.366.535c1.331 0 2.263-1.07 2.263-2.274a2.249 2.249 0 0 0-2.263-2.274c-1.197 0-2.262 1.07-2.262 2.274s1.065 2.274 2.262 2.274Zm7.853-6.688c1.33 0 2.262-1.07 2.262-2.274a2.249 2.249 0 0 0-2.262-2.275c-1.331 0-2.263 1.07-2.263 2.275-.133 1.203.932 2.274 2.263 2.274Zm-13.043 14.58c1.331 0 2.263-1.07 2.263-2.274a2.249 2.249 0 0 0-2.263-2.274c-1.198 0-2.262 1.07-2.262 2.274-.133 1.204.931 2.274 2.262 2.274Zm-6.388-2.408c1.33 0 2.263-1.07 2.263-2.274a2.249 2.249 0 0 0-2.263-2.274c-1.33 0-2.262 1.07-2.262 2.274s1.064 2.274 2.262 2.274Zm-3.194 5.485c1.33 0 2.262-1.07 2.262-2.274s-1.064-2.274-2.262-2.274c-1.33 0-2.262 1.07-2.262 2.274s.931 2.274 2.262 2.274Zm6.388-10.97c1.331 0 2.263-1.07 2.263-2.273a2.249 2.249 0 0 0-2.263-2.274c-1.33 0-2.262 1.07-2.262 2.274s1.064 2.274 2.262 2.274Zm-6.521-1.604c1.33 0 2.262-1.07 2.262-2.274s-1.064-2.274-2.262-2.274c-1.33 0-2.263 1.07-2.263 2.274s1.065 2.274 2.263 2.274Zm-3.327 5.752c1.33 0 2.262-1.07 2.262-2.274a2.249 2.249 0 0 0-2.262-2.274c-1.331 0-2.263 1.07-2.263 2.274 0 1.203 1.065 2.274 2.263 2.274Zm13.574 29.696c1.331 0 2.263-1.07 2.263-2.274s-1.065-2.274-2.263-2.274c-1.33 0-2.262 1.07-2.262 2.274s1.065 2.274 2.262 2.274Zm-50.705-2.14a2.249 2.249 0 0 0-2.262-2.275c-1.331 0-2.263 1.07-2.263 2.274a2.249 2.249 0 0 0 2.263 2.274c1.197.134 2.262-.936 2.262-2.274Zm-6.255.133a2.249 2.249 0 0 0-2.262-2.274c-1.198 0-2.263 1.07-2.263 2.274a2.249 2.249 0 0 0 2.263 2.274c1.197 0 2.262-1.07 2.262-2.274Zm12.51-.134a2.249 2.249 0 0 0-2.262-2.274c-1.331 0-2.263 1.07-2.263 2.274a2.249 2.249 0 0 0 2.263 2.274 2.249 2.249 0 0 0 2.262-2.274Zm6.388-.133a2.249 2.249 0 0 0-2.262-2.274c-1.331 0-2.263 1.07-2.263 2.274a2.249 2.249 0 0 0 2.263 2.274c1.197.133 2.262-.937 2.262-2.274Zm2.928-6.287a2.249 2.249 0 0 0-2.262-2.274c-1.331 0-2.263 1.07-2.263 2.274a2.249 2.249 0 0 0 2.263 2.274c1.197 0 2.262-1.07 2.262-2.274Zm-7.054-.134a2.249 2.249 0 0 0-2.262-2.274c-1.33 0-2.262 1.07-2.262 2.274s1.064 2.274 2.262 2.274c1.198.134 2.262-.936 2.262-2.274Zm-6.654.134a2.249 2.249 0 0 0-2.262-2.274c-1.331 0-2.263 1.07-2.263 2.274a2.249 2.249 0 0 0 2.263 2.274c1.198 0 2.262-1.07 2.262-2.274Zm-6.521 0a2.249 2.249 0 0 0-2.262-2.274c-1.331 0-2.263 1.07-2.263 2.274s1.065 2.274 2.263 2.274c1.197 0 2.262-1.07 2.262-2.274Zm2.662-6.287a2.249 2.249 0 0 0-2.263-2.274c-1.33 0-2.262 1.07-2.262 2.274s1.065 2.274 2.262 2.274c1.198.133 2.263-.937 2.263-2.274Zm6.92.133a2.249 2.249 0 0 0-2.262-2.274c-1.331 0-2.263 1.07-2.263 2.274a2.249 2.249 0 0 0 2.263 2.274 2.249 2.249 0 0 0 2.262-2.274Zm7.32.268a2.249 2.249 0 0 0-2.263-2.274c-1.33 0-2.262 1.07-2.262 2.274a2.249 2.249 0 0 0 2.262 2.274 2.249 2.249 0 0 0 2.263-2.274Zm7.852.535a2.249 2.249 0 0 0-2.263-2.274c-1.33 0-2.262 1.07-2.262 2.274a2.249 2.249 0 0 0 2.262 2.274c1.198.134 2.263-.936 2.263-2.274Zm3.06 5.618a2.249 2.249 0 0 0-2.262-2.274c-1.33 0-2.262 1.07-2.262 2.274a2.249 2.249 0 0 0 2.262 2.274c1.198 0 2.263-1.07 2.263-2.274Zm5.99-4.013a2.249 2.249 0 0 0-2.263-2.274c-1.198 0-2.395.937-2.395 2.274a2.249 2.249 0 0 0 2.262 2.274c1.198 0 2.396-.936 2.396-2.274Zm4.658-3.745c-1.331 0-2.263 1.07-2.263 2.274a2.249 2.249 0 0 0 2.263 2.274c1.33 0 2.262-1.07 2.262-2.274s-.931-2.274-2.262-2.274Zm-1.198-3.612a2.249 2.249 0 0 0-2.263-2.274c-1.33 0-2.262 1.07-2.262 2.274a2.249 2.249 0 0 0 2.262 2.274c1.198.134 2.263-.936 2.263-2.274Zm-6.654 2.007a2.249 2.249 0 0 0-2.263-2.274c-1.33 0-2.262 1.07-2.262 2.274a2.249 2.249 0 0 0 2.262 2.274 2.249 2.249 0 0 0 2.263-2.274Zm-3.061-5.351a2.249 2.249 0 0 0-2.263-2.274c-1.198 0-2.262 1.07-2.262 2.274a2.249 2.249 0 0 0 2.262 2.274 2.249 2.249 0 0 0 2.263-2.274Zm-5.856 3.745a2.249 2.249 0 0 0-2.263-2.274c-1.33 0-2.262 1.07-2.262 2.274s1.065 2.274 2.262 2.274c1.198 0 2.263-1.07 2.263-2.274Zm-3.061-5.484a2.249 2.249 0 0 0-2.262-2.274c-1.331 0-2.263 1.07-2.263 2.274a2.249 2.249 0 0 0 2.263 2.274c1.197.134 2.262-.936 2.262-2.274Zm-4.924 4.548a2.249 2.249 0 0 0-2.263-2.274c-1.33 0-2.262 1.07-2.262 2.274s1.065 2.274 2.262 2.274c1.198.134 2.263-.936 2.263-2.274Zm-7.586-.401a2.249 2.249 0 0 0-2.263-2.274c-1.33 0-2.262 1.07-2.262 2.274s1.065 2.274 2.262 2.274c1.198.133 2.263-.937 2.263-2.274Zm.266-11.772a2.249 2.249 0 0 0-2.262-2.274c-1.331 0-2.263 1.07-2.263 2.274s1.065 2.274 2.263 2.274c1.197 0 2.262-1.07 2.262-2.274Zm9.183 2.274a2.249 2.249 0 0 0-2.262-2.274c-1.331 0-2.263 1.07-2.263 2.274s1.065 2.274 2.263 2.274c1.197.134 2.262-.936 2.262-2.274Zm5.723-3.478a2.249 2.249 0 0 0-2.263-2.274c-1.198 0-2.262 1.07-2.262 2.274a2.249 2.249 0 0 0 2.262 2.274c1.198 0 2.263-1.07 2.263-2.274Zm3.06 5.217a2.249 2.249 0 0 0-2.262-2.274c-1.33 0-2.262 1.07-2.262 2.274a2.249 2.249 0 0 0 2.262 2.274c1.331.134 2.263-.936 2.263-2.274Zm6.389-2.408a2.249 2.249 0 0 0-2.263-2.274c-1.33 0-2.262 1.07-2.262 2.274a2.249 2.249 0 0 0 2.262 2.274c1.198.134 2.263-.936 2.263-2.274Zm3.194 5.485a2.249 2.249 0 0 0-2.263-2.274c-1.33 0-2.262 1.07-2.262 2.274s1.065 2.274 2.262 2.274c1.198.134 2.263-.936 2.263-2.274Zm4.525-3.077c-1.331 0-2.263 1.07-2.263 2.274s1.065 2.274 2.263 2.274c1.33 0 2.262-1.07 2.262-2.274s-.931-2.274-2.262-2.274Zm0-12.306c-1.331 0-2.263 1.07-2.263 2.274a2.249 2.249 0 0 0 2.263 2.274c1.33 0 2.262-1.07 2.262-2.274s-.931-2.274-2.262-2.274Zm-10.913 4.414a2.249 2.249 0 0 0-2.263-2.274c-1.33 0-2.262 1.07-2.262 2.274a2.249 2.249 0 0 0 2.262 2.274c1.198.134 2.263-.936 2.263-2.274Zm6.52-1.471a2.249 2.249 0 0 0-2.262-2.274c-1.33 0-2.262 1.07-2.262 2.274s1.065 2.274 2.262 2.274c1.198 0 2.263-1.07 2.263-2.274Zm3.328 5.752a2.249 2.249 0 0 0-2.262-2.274c-1.331 0-2.263 1.07-2.263 2.274a2.249 2.249 0 0 0 2.263 2.274c1.197 0 2.262-1.07 2.262-2.274ZM189.247 48.69a2.249 2.249 0 0 0-2.262-2.274c-1.331 0-2.263 1.07-2.263 2.274s1.065 2.274 2.263 2.274c1.198.134 2.262-.936 2.262-2.274Zm55.098 7.09a2.249 2.249 0 0 0 2.262 2.274c1.33 0 2.262-1.07 2.262-2.274a2.249 2.249 0 0 0-2.262-2.275c-1.198 0-2.262 1.07-2.262 2.275Zm-6.122 0a2.249 2.249 0 0 0 2.262 2.274c1.331 0 2.263-1.07 2.263-2.274a2.249 2.249 0 0 0-2.263-2.275c-1.198 0-2.262 1.07-2.262 2.275Zm-.533 6.955a2.249 2.249 0 0 0 2.263 2.274c1.33 0 2.262-1.07 2.262-2.274a2.249 2.249 0 0 0-2.262-2.274c-1.198-.133-2.263.937-2.263 2.274Zm6.255-.133a2.249 2.249 0 0 0 2.263 2.274c1.33 0 2.262-1.07 2.262-2.274s-1.064-2.274-2.262-2.274c-1.331 0-2.263.936-2.263 2.274Zm-12.51.133a2.249 2.249 0 0 0 2.263 2.274c1.198 0 2.262-1.07 2.262-2.274s-1.064-2.274-2.262-2.274a2.249 2.249 0 0 0-2.263 2.274Zm-6.388.134a2.249 2.249 0 0 0 2.263 2.274c1.33 0 2.262-1.07 2.262-2.274a2.249 2.249 0 0 0-2.262-2.274c-1.198-.134-2.263.936-2.263 2.274Zm-2.928 6.287a2.249 2.249 0 0 0 2.263 2.274c1.33 0 2.262-1.07 2.262-2.274a2.249 2.249 0 0 0-2.262-2.274c-1.198 0-2.263 1.07-2.263 2.274Zm7.054 0a2.249 2.249 0 0 0 2.262 2.274c1.331 0 2.263-1.07 2.263-2.274a2.249 2.249 0 0 0-2.263-2.274c-1.33 0-2.262 1.07-2.262 2.274Zm6.654 0a2.249 2.249 0 0 0 2.263 2.274c1.197 0 2.262-1.07 2.262-2.274a2.249 2.249 0 0 0-2.262-2.274c-1.198 0-2.263 1.07-2.263 2.274Zm13.042 5.618a2.249 2.249 0 0 0 2.263 2.274c1.33 0 2.262-1.07 2.262-2.274a2.249 2.249 0 0 0-2.262-2.274c-1.198 0-2.263 1.07-2.263 2.274Zm-9.182.67a2.249 2.249 0 0 0 2.262 2.273c1.198 0 2.263-1.07 2.263-2.274a2.249 2.249 0 0 0-2.263-2.274 2.249 2.249 0 0 0-2.262 2.274Zm-6.92-.135a2.249 2.249 0 0 0 2.262 2.274c1.33 0 2.262-1.07 2.262-2.274s-1.065-2.274-2.262-2.274c-1.198-.133-2.263.937-2.263 2.274Zm-7.32-.267a2.249 2.249 0 0 0 2.262 2.274c1.198 0 2.262-1.07 2.262-2.274a2.249 2.249 0 0 0-2.262-2.274 2.249 2.249 0 0 0-2.263 2.274Zm-7.853-.535a2.249 2.249 0 0 0 2.263 2.274c1.33 0 2.262-1.07 2.262-2.274a2.249 2.249 0 0 0-2.262-2.274c-1.198-.134-2.263.936-2.263 2.274Zm-3.06-5.618a2.249 2.249 0 0 0 2.262 2.274c1.33 0 2.262-1.07 2.262-2.274s-1.064-2.274-2.262-2.274-2.263 1.07-2.263 2.274Zm-5.99 4.013a2.249 2.249 0 0 0 2.263 2.274c1.331 0 2.263-1.07 2.263-2.274a2.249 2.249 0 0 0-2.263-2.274 2.249 2.249 0 0 0-2.262 2.274Zm-3.46 7.357a2.249 2.249 0 0 0 2.263 2.274c1.198 0 2.262-1.07 2.262-2.274a2.249 2.249 0 0 0-2.262-2.274 2.249 2.249 0 0 0-2.263 2.274Zm6.655-2.007A2.249 2.249 0 0 0 214 80.527c1.198 0 2.263-1.07 2.263-2.274A2.249 2.249 0 0 0 214 75.98a2.249 2.249 0 0 0-2.262 2.274Zm3.06 5.35a2.249 2.249 0 0 0 2.263 2.275c1.331 0 2.263-1.07 2.263-2.274a2.249 2.249 0 0 0-2.263-2.274c-1.198-.134-2.262.936-2.262 2.274Zm5.856-3.745a2.249 2.249 0 0 0 2.263 2.274c1.198 0 2.262-1.07 2.262-2.274a2.249 2.249 0 0 0-2.262-2.274c-1.198 0-2.263 1.07-2.263 2.274Zm3.061 5.485a2.249 2.249 0 0 0 2.263 2.274c1.33 0 2.262-1.07 2.262-2.274a2.249 2.249 0 0 0-2.262-2.274c-1.331-.134-2.263.936-2.263 2.274Zm4.925-4.682a2.249 2.249 0 0 0 2.262 2.274c1.33 0 2.262-1.07 2.262-2.274a2.249 2.249 0 0 0-2.262-2.274c-1.198 0-2.262 1.07-2.262 2.274Zm7.585.535a2.249 2.249 0 0 0 2.263 2.274c1.33 0 2.262-1.07 2.262-2.274a2.249 2.249 0 0 0-2.262-2.274c-1.198-.134-2.263.936-2.263 2.274Zm11.18 19.53a2.249 2.249 0 0 0 2.262 2.274c1.198 0 2.262-1.07 2.262-2.274a2.249 2.249 0 0 0-2.262-2.274 2.249 2.249 0 0 0-2.262 2.274Zm-14.64-4.95a2.249 2.249 0 0 0 2.263 2.275c1.197 0 2.262-1.07 2.262-2.274s-1.065-2.274-2.262-2.274c-1.198 0-2.263 1.07-2.263 2.274Zm-11.711-1.605a2.249 2.249 0 0 0 2.262 2.274c1.331 0 2.263-1.07 2.263-2.274a2.249 2.249 0 0 0-2.263-2.274c-1.33 0-2.262 1.07-2.262 2.274Zm-3.194-5.35a2.249 2.249 0 0 0 2.262 2.274c1.198 0 2.263-1.07 2.263-2.274a2.249 2.249 0 0 0-2.263-2.274c-1.198 0-2.262 1.07-2.262 2.274Zm-6.255 2.541a2.249 2.249 0 0 0 2.262 2.274c1.33 0 2.263-1.07 2.263-2.274s-1.065-2.274-2.263-2.274c-1.198-.133-2.262.937-2.262 2.274Zm-3.194-5.484a2.249 2.249 0 0 0 2.262 2.274c1.33 0 2.262-1.07 2.262-2.274s-1.064-2.274-2.262-2.274c-1.33-.134-2.262.936-2.262 2.274Zm6.388 10.969a2.249 2.249 0 0 0 2.262 2.274c1.331 0 2.263-1.07 2.263-2.274a2.249 2.249 0 0 0-2.263-2.274c-1.198-.134-2.262.936-2.262 2.274Zm-6.522 1.471a2.249 2.249 0 0 0 2.263 2.274c1.33 0 2.262-1.07 2.262-2.274s-1.064-2.274-2.262-2.274-2.263 1.07-2.263 2.274Zm-3.327-5.752a2.249 2.249 0 0 0 2.263 2.274c1.33 0 2.262-1.07 2.262-2.274a2.249 2.249 0 0 0-2.262-2.274 2.249 2.249 0 0 0-2.263 2.274Zm13.575-29.562a2.249 2.249 0 0 0 2.262 2.274c1.331 0 2.263-1.07 2.263-2.274a2.249 2.249 0 0 0-2.263-2.274c-1.197-.134-2.262.936-2.262 2.274Zm13.575-7.223a2.249 2.249 0 0 0 2.262 2.274c1.331 0 2.263-1.07 2.263-2.274a2.249 2.249 0 0 0-2.263-2.275c-1.198 0-2.262 1.07-2.262 2.275Zm-6.122 0a2.249 2.249 0 0 0 2.262 2.274c1.331 0 2.263-1.07 2.263-2.274a2.249 2.249 0 0 0-2.263-2.275c-1.197 0-2.262 1.07-2.262 2.275Zm-6.122 0a2.249 2.249 0 0 0 2.262 2.274c1.331 0 2.263-1.07 2.263-2.274a2.249 2.249 0 0 0-2.263-2.275c-1.197 0-2.262 1.07-2.262 2.275Zm-61.086 0a2.249 2.249 0 0 0 2.262 2.274c1.331 0 2.263-1.07 2.263-2.274a2.249 2.249 0 0 0-2.263-2.275c-1.198 0-2.262 1.07-2.262 2.275Zm6.122 0a2.249 2.249 0 0 0 2.262 2.274c1.331 0 2.263-1.07 2.263-2.274a2.249 2.249 0 0 0-2.263-2.275c-1.198 0-2.262 1.07-2.262 2.275Zm2.928 4.548c-1.331 0-2.263 1.07-2.263 2.274a2.249 2.249 0 0 0 2.263 2.274c1.33 0 2.262-1.07 2.262-2.274s-1.065-2.274-2.262-2.274Zm-6.255 0c-1.331 0-2.263 1.07-2.263 2.274 0 1.203 1.065 2.274 2.263 2.274 1.197 0 2.262-1.07 2.262-2.274s-.932-2.274-2.262-2.274Zm12.51 0c-1.331 0-2.263 1.07-2.263 2.274 0 1.203 1.065 2.274 2.263 2.274 1.33 0 2.262-1.07 2.262-2.274s-1.065-2.274-2.262-2.274Zm6.255.133c-1.331 0-2.263 1.07-2.263 2.274a2.249 2.249 0 0 0 2.263 2.274c1.33 0 2.262-1.07 2.262-2.274.133-1.204-.932-2.274-2.262-2.274Zm2.927 6.421c-1.33 0-2.262 1.07-2.262 2.274a2.249 2.249 0 0 0 2.262 2.274c1.331 0 2.263-1.07 2.263-2.274.133-1.204-.932-2.274-2.263-2.274Zm-6.92 0c-1.33 0-2.262 1.07-2.262 2.274a2.249 2.249 0 0 0 2.262 2.274c1.33 0 2.262-1.07 2.262-2.274s-1.064-2.274-2.262-2.274Zm-6.654 0c-1.331 0-2.263 1.07-2.263 2.274a2.249 2.249 0 0 0 2.263 2.274c1.33 0 2.262-1.07 2.262-2.274s-1.064-2.274-2.262-2.274Zm-6.521 0c-1.331 0-2.263 1.07-2.263 2.274a2.249 2.249 0 0 0 2.263 2.274c1.33 0 2.262-1.07 2.262-2.274s-1.065-2.274-2.262-2.274Zm2.528 6.153c-1.33 0-2.262 1.07-2.262 2.274a2.249 2.249 0 0 0 2.262 2.274c1.331 0 2.263-1.07 2.263-2.274.133-1.204-.932-2.274-2.263-2.274Zm6.92-.133c-1.33 0-2.262 1.07-2.262 2.274s1.065 2.274 2.263 2.274c1.33 0 2.262-1.07 2.262-2.274s-.932-2.274-2.262-2.274Zm7.32-.134c-1.33 0-2.262 1.07-2.262 2.274a2.249 2.249 0 0 0 2.262 2.274c1.331 0 2.263-1.07 2.263-2.274.133-1.338-.932-2.274-2.263-2.274Zm8.65-1.74c-1.33 0-2.262 1.071-2.262 2.275a2.249 2.249 0 0 0 2.263 2.274c1.33 0 2.262-1.07 2.262-2.274s-.931-2.274-2.262-2.274Zm5.99-7.356c-1.331 0-2.263 1.07-2.263 2.274a2.249 2.249 0 0 0 2.263 2.274c1.197 0 2.262-1.07 2.262-2.274a2.249 2.249 0 0 0-2.262-2.274Zm2.262 6.956c-1.33 0-2.262 1.07-2.262 2.274a2.249 2.249 0 0 0 2.262 2.274c1.198 0 2.263-1.07 2.263-2.274.133-1.338-.932-2.274-2.263-2.274Zm7.054 1.337c-1.331 0-2.263 1.07-2.263 2.274a2.249 2.249 0 0 0 2.263 2.274c1.33 0 2.262-1.07 2.262-2.274s-.931-2.274-2.262-2.274Zm-3.46 5.886c-1.331 0-2.263 1.07-2.263 2.274a2.249 2.249 0 0 0 2.262 2.274c1.331 0 2.263-1.07 2.263-2.274s-1.065-2.274-2.263-2.274Zm-6.655-1.873c-1.33 0-2.262 1.07-2.262 2.274a2.249 2.249 0 0 0 2.262 2.274c1.331 0 2.263-1.07 2.263-2.274a2.249 2.249 0 0 0-2.263-2.274Zm-3.194 5.217c-1.33 0-2.262 1.07-2.262 2.274a2.249 2.249 0 0 0 2.262 2.274c1.198 0 2.263-1.07 2.263-2.274.133-1.204-.932-2.274-2.263-2.274Zm-5.723-3.612c-1.33 0-2.262 1.07-2.262 2.274a2.249 2.249 0 0 0 2.262 2.274c1.331 0 2.263-1.07 2.263-2.274 0-1.203-1.065-2.274-2.263-2.274Zm-3.06 5.351c-1.331 0-2.263 1.07-2.263 2.274a2.249 2.249 0 0 0 2.263 2.274c1.33 0 2.262-1.07 2.262-2.274s-1.065-2.274-2.262-2.274Zm-5.058-4.548c-1.33 0-2.262 1.07-2.262 2.274a2.249 2.249 0 0 0 2.262 2.274c1.331 0 2.263-1.07 2.263-2.274.133-1.204-.932-2.274-2.263-2.274Zm-7.453.401c-1.33 0-2.262 1.07-2.262 2.274a2.249 2.249 0 0 0 2.262 2.274c1.331 0 2.263-1.07 2.263-2.274s-1.065-2.274-2.263-2.274Zm4.26 5.217c-1.332 0-2.263 1.07-2.263 2.274a2.249 2.249 0 0 0 2.262 2.274c1.331 0 2.263-1.07 2.263-2.274.133-1.337-.932-2.274-2.263-2.274Zm5.19 4.28c-1.331 0-2.263 1.07-2.263 2.275 0 1.204 1.065 2.274 2.263 2.274 1.33 0 2.262-1.07 2.262-2.274s-1.065-2.274-2.262-2.274Zm5.722 3.612c-1.33 0-2.262 1.07-2.262 2.274a2.249 2.249 0 0 0 2.262 2.274c1.198 0 2.263-1.07 2.263-2.274 0-1.203-.932-2.274-2.263-2.274Zm3.061-5.35c-1.33 0-2.262 1.07-2.262 2.274a2.249 2.249 0 0 0 2.262 2.274c1.331 0 2.263-1.07 2.263-2.274s-.932-2.274-2.263-2.274Zm6.255 2.408c-1.33 0-2.262 1.07-2.262 2.274 0 1.203 1.064 2.274 2.262 2.274 1.331 0 2.263-1.07 2.263-2.274s-.932-2.274-2.263-2.274Zm3.327-5.485c-1.33 0-2.262 1.07-2.262 2.274s1.065 2.274 2.262 2.274c1.331 0 2.263-1.07 2.263-2.274s-1.065-2.274-2.263-2.274Zm6.788.803c-1.331 0-2.263 1.07-2.263 2.274a2.249 2.249 0 0 0 2.263 2.274c1.33 0 2.262-1.07 2.262-2.274s-.931-2.274-2.262-2.274Zm0 12.306c-1.331 0-2.263 1.07-2.263 2.274a2.249 2.249 0 0 0 2.263 2.274c1.33 0 2.262-1.07 2.262-2.274 0-1.337-.931-2.274-2.262-2.274Zm-13.176-2.14c-1.33 0-2.262 1.07-2.262 2.274a2.249 2.249 0 0 0 2.262 2.274c1.331 0 2.263-1.07 2.263-2.274s-1.065-2.274-2.263-2.274Zm6.521 1.605c-1.33 0-2.262 1.07-2.262 2.274s1.065 2.274 2.262 2.274c1.331 0 2.263-1.07 2.263-2.274s-1.065-2.274-2.263-2.274Zm3.328-5.752c-1.331 0-2.263 1.07-2.263 2.274a2.249 2.249 0 0 0 2.263 2.274c1.33 0 2.262-1.07 2.262-2.274a2.249 2.249 0 0 0-2.262-2.274Zm-13.708-29.696c-1.331 0-2.263 1.07-2.263 2.274a2.249 2.249 0 0 0 2.263 2.274c1.33 0 2.262-1.07 2.262-2.274.133-1.204-.931-2.274-2.262-2.274Zm-15.837-4.815a2.249 2.249 0 0 0 2.262 2.274c1.33 0 2.262-1.07 2.262-2.274a2.249 2.249 0 0 0-2.262-2.275c-1.198 0-2.262 1.07-2.262 2.275Zm6.122 0a2.249 2.249 0 0 0 2.262 2.274c1.33 0 2.262-1.07 2.262-2.274a2.249 2.249 0 0 0-2.262-2.275c-1.33 0-2.262 1.07-2.262 2.275Zm6.121 0a2.249 2.249 0 0 0 2.263 2.274c1.33 0 2.262-1.07 2.262-2.274a2.249 2.249 0 0 0-2.262-2.275c-1.331 0-2.263 1.07-2.263 2.275Zm154.512-4.415c1.331 0 2.263-1.07 2.263-2.274a2.249 2.249 0 0 0-2.263-2.274c-1.197 0-2.262 1.07-2.262 2.274s1.065 2.274 2.262 2.274Zm6.255 0c1.331 0 2.263-1.07 2.263-2.274a2.249 2.249 0 0 0-2.263-2.274c-1.33 0-2.262 1.07-2.262 2.274s.932 2.274 2.262 2.274Zm-12.51-.134c1.331 0 2.263-1.07 2.263-2.274a2.249 2.249 0 0 0-2.263-2.274c-1.33 0-2.262 1.07-2.262 2.274a2.249 2.249 0 0 0 2.262 2.274Zm-6.255 0c1.331 0 2.263-1.07 2.263-2.274a2.249 2.249 0 0 0-2.263-2.274c-1.33 0-2.262 1.07-2.262 2.274-.133 1.204.932 2.274 2.262 2.274Zm-2.927-6.42c1.33 0 2.262-1.07 2.262-2.274a2.249 2.249 0 0 0-2.262-2.274c-1.331 0-2.263 1.07-2.263 2.274-.133 1.204.932 2.274 2.263 2.274Zm6.92 0c1.33 0 2.262-1.07 2.262-2.274s-1.064-2.274-2.262-2.274c-1.33 0-2.262 1.07-2.262 2.274s1.064 2.274 2.262 2.274Zm6.654 0c1.331 0 2.263-1.07 2.263-2.274a2.249 2.249 0 0 0-2.263-2.274c-1.33 0-2.262 1.07-2.262 2.274s1.065 2.274 2.262 2.274Zm6.521 0c1.331 0 2.263-1.07 2.263-2.274s-1.065-2.274-2.263-2.274c-1.33 0-2.262 1.07-2.262 2.274s.932 2.274 2.262 2.274Zm-2.528-6.154c1.33 0 2.262-1.07 2.262-2.274 0-1.203-1.064-2.274-2.262-2.274-1.331 0-2.263 1.07-2.263 2.274s.932 2.274 2.263 2.274Zm-6.92 0c1.33 0 2.262-1.07 2.262-2.274a2.249 2.249 0 0 0-2.263-2.274c-1.33 0-2.262 1.07-2.262 2.274-.133 1.338.932 2.274 2.262 2.274Zm-7.32.268c1.33 0 2.262-1.07 2.262-2.274a2.249 2.249 0 0 0-2.262-2.274c-1.331 0-2.263 1.07-2.263 2.274-.133 1.338.932 2.274 2.263 2.274Zm-7.985.669c1.33 0 2.262-1.07 2.262-2.274a2.249 2.249 0 0 0-2.262-2.274c-1.198 0-2.263 1.07-2.263 2.274s1.065 2.274 2.263 2.274Zm-2.928 5.484c1.33 0 2.262-1.07 2.262-2.274a2.249 2.249 0 0 0-2.262-2.274c-1.198 0-2.263 1.07-2.263 2.274-.133 1.204.932 2.274 2.263 2.274Zm-7.187-1.471c1.331 0 2.263-1.07 2.263-2.274a2.249 2.249 0 0 0-2.263-2.274c-1.33 0-2.262 1.07-2.262 2.274-.133 1.337.931 2.274 2.262 2.274Zm-2.395-9.765c1.33 0 2.262-1.07 2.262-2.274a2.249 2.249 0 0 0-2.262-2.274c-1.331 0-2.263 1.07-2.263 2.274s.932 2.274 2.263 2.274Zm5.722 3.612c1.331 0 2.263-1.07 2.263-2.274a2.249 2.249 0 0 0-2.263-2.275c-1.33 0-2.262 1.07-2.262 2.275-.133 1.203.931 2.274 2.262 2.274Zm4.126-6.956c1.33 0 2.262-1.07 2.262-2.274a2.249 2.249 0 0 0-2.262-2.274c-1.331 0-2.263 1.07-2.263 2.274-.133 1.204.932 2.274 2.263 2.274Zm5.723 3.611c1.33 0 2.262-1.07 2.262-2.274s-1.065-2.274-2.262-2.274c-1.331 0-2.263 1.07-2.263 2.274s1.065 2.274 2.263 2.274Zm3.06-5.35c1.331 0 2.263-1.07 2.263-2.274a2.249 2.249 0 0 0-2.262-2.274c-1.198 0-2.263 1.07-2.263 2.274s1.065 2.274 2.263 2.274Zm5.058 4.548c1.33 0 2.262-1.07 2.262-2.274s-1.064-2.274-2.262-2.274-2.263 1.07-2.263 2.274.932 2.274 2.263 2.274Zm7.453-.402c1.33 0 2.262-1.07 2.262-2.274 0-1.203-1.065-2.274-2.262-2.274-1.198 0-2.263 1.07-2.263 2.274s1.065 2.274 2.263 2.274Zm0-13.777c1.33 0 2.262-1.07 2.262-2.274a2.249 2.249 0 0 0-2.262-2.274c-1.198 0-2.263 1.07-2.263 2.274 0 1.203 1.065 2.274 2.263 2.274Zm-3.46-11.103c1.33 0 2.262-1.07 2.262-2.274s-1.065-2.274-2.263-2.274c-1.33 0-2.262 1.07-2.262 2.274s.931 2.274 2.262 2.274Zm-11.712 11.771c1.33 0 2.262-1.07 2.262-2.274a2.249 2.249 0 0 0-2.262-2.274c-1.331 0-2.263 1.07-2.263 2.274s.932 2.274 2.263 2.274Zm-3.061 5.351c1.33 0 2.262-1.07 2.262-2.274a2.249 2.249 0 0 0-2.262-2.274c-1.331 0-2.263 1.07-2.263 2.274-.133 1.204.932 2.274 2.263 2.274Zm-6.388-2.408c1.33 0 2.262-1.07 2.262-2.274a2.249 2.249 0 0 0-2.262-2.274c-1.198 0-2.263 1.07-2.263 2.274s1.065 2.274 2.263 2.274Zm-3.194 5.485c1.33 0 2.262-1.07 2.262-2.274s-1.065-2.274-2.262-2.274c-1.198 0-2.263 1.07-2.263 2.274s1.065 2.274 2.263 2.274Zm6.388-10.97c1.33 0 2.262-1.07 2.262-2.273a2.249 2.249 0 0 0-2.262-2.274c-1.198 0-2.263 1.07-2.263 2.274s1.065 2.274 2.263 2.274Zm-6.521-1.604c1.33 0 2.262-1.07 2.262-2.274s-1.065-2.274-2.262-2.274c-1.198 0-2.263 1.07-2.263 2.274s1.065 2.274 2.263 2.274Zm-3.328 5.752c1.331 0 2.263-1.07 2.263-2.274a2.249 2.249 0 0 0-2.263-2.274c-1.197 0-2.262 1.07-2.262 2.274 0 1.203 1.065 2.274 2.262 2.274Zm13.575 29.696c1.331 0 2.263-1.07 2.263-2.274s-1.065-2.274-2.263-2.274c-1.33 0-2.262 1.07-2.262 2.274s1.064 2.274 2.262 2.274Zm-50.705-2.14a2.249 2.249 0 0 0-2.263-2.275c-1.33 0-2.262 1.07-2.262 2.274a2.249 2.249 0 0 0 2.262 2.274c1.198.134 2.263-.936 2.263-2.274Zm-6.255.133a2.249 2.249 0 0 0-2.263-2.274c-1.33 0-2.262 1.07-2.262 2.274a2.249 2.249 0 0 0 2.262 2.274c1.331 0 2.263-1.07 2.263-2.274Zm12.51-.134a2.249 2.249 0 0 0-2.263-2.274c-1.33 0-2.262 1.07-2.262 2.274a2.249 2.249 0 0 0 2.262 2.274 2.249 2.249 0 0 0 2.263-2.274Zm6.388-.133a2.249 2.249 0 0 0-2.263-2.274c-1.197 0-2.262 1.07-2.262 2.274a2.249 2.249 0 0 0 2.262 2.274 2.249 2.249 0 0 0 2.263-2.274Zm2.928-6.287a2.249 2.249 0 0 0-2.263-2.274c-1.198 0-2.262 1.07-2.262 2.274a2.249 2.249 0 0 0 2.262 2.274c1.198 0 2.263-1.07 2.263-2.274Zm-7.054-.134a2.249 2.249 0 0 0-2.262-2.274c-1.198 0-2.263 1.07-2.263 2.274s1.065 2.274 2.263 2.274a2.249 2.249 0 0 0 2.262-2.274Zm-6.654.134a2.249 2.249 0 0 0-2.263-2.274c-1.33 0-2.262 1.07-2.262 2.274a2.249 2.249 0 0 0 2.262 2.274c1.198 0 2.263-1.07 2.263-2.274Zm-6.521 0a2.249 2.249 0 0 0-2.263-2.274c-1.33 0-2.262 1.07-2.262 2.274s1.064 2.274 2.262 2.274c1.331 0 2.263-1.07 2.263-2.274Zm2.661-6.287a2.249 2.249 0 0 0-2.262-2.274c-1.33 0-2.262 1.07-2.262 2.274s1.064 2.274 2.262 2.274c1.198.133 2.262-.937 2.262-2.274Zm6.92.133a2.249 2.249 0 0 0-2.262-2.274c-1.197 0-2.262 1.07-2.262 2.274a2.249 2.249 0 0 0 2.262 2.274 2.249 2.249 0 0 0 2.263-2.274Zm7.32.268a2.249 2.249 0 0 0-2.262-2.274c-1.33 0-2.262 1.07-2.262 2.274a2.249 2.249 0 0 0 2.262 2.274 2.249 2.249 0 0 0 2.263-2.274Zm7.853.535a2.249 2.249 0 0 0-2.263-2.274c-1.198 0-2.262 1.07-2.262 2.274a2.249 2.249 0 0 0 2.262 2.274 2.249 2.249 0 0 0 2.263-2.274Zm3.06 5.618a2.249 2.249 0 0 0-2.262-2.274c-1.33 0-2.262 1.07-2.262 2.274a2.249 2.249 0 0 0 2.262 2.274c1.198 0 2.263-1.07 2.263-2.274Zm5.99-4.013a2.249 2.249 0 0 0-2.263-2.274c-1.33 0-2.263 1.07-2.263 2.274a2.249 2.249 0 0 0 2.263 2.274 2.249 2.249 0 0 0 2.262-2.274Zm4.657-3.745c-1.33 0-2.262 1.07-2.262 2.274a2.249 2.249 0 0 0 2.262 2.274c1.198 0 2.263-1.07 2.263-2.274s-.932-2.274-2.263-2.274Zm-1.197-3.612a2.249 2.249 0 0 0-2.263-2.274c-1.33 0-2.262 1.07-2.262 2.274a2.249 2.249 0 0 0 2.262 2.274c1.198.134 2.263-.936 2.263-2.274Zm-6.655 2.007a2.249 2.249 0 0 0-2.262-2.274c-1.331 0-2.263 1.07-2.263 2.274a2.249 2.249 0 0 0 2.263 2.274 2.249 2.249 0 0 0 2.262-2.274Zm-3.06-5.351a2.249 2.249 0 0 0-2.263-2.274c-1.33 0-2.263 1.07-2.263 2.274a2.249 2.249 0 0 0 2.263 2.274c1.198.134 2.262-.936 2.262-2.274Zm-5.856 3.745a2.249 2.249 0 0 0-2.263-2.274c-1.33 0-2.262 1.07-2.262 2.274s1.064 2.274 2.262 2.274 2.263-1.07 2.263-2.274Zm-3.061-5.484a2.249 2.249 0 0 0-2.263-2.274c-1.33 0-2.262 1.07-2.262 2.274a2.249 2.249 0 0 0 2.262 2.274c1.198.134 2.263-.936 2.263-2.274ZM276.95 30.9a2.249 2.249 0 0 0-2.262-2.274c-1.33 0-2.262 1.07-2.262 2.274s1.064 2.274 2.262 2.274c1.198.134 2.262-.936 2.262-2.274Zm-7.585-.401a2.249 2.249 0 0 0-2.263-2.274c-1.33 0-2.262 1.07-2.262 2.274s1.064 2.274 2.262 2.274c1.198.133 2.263-.937 2.263-2.274Zm4.391-5.083a2.249 2.249 0 0 0-2.262-2.274c-1.198 0-2.396.936-2.396 2.274a2.249 2.249 0 0 0 2.263 2.274c1.198 0 2.395-.937 2.395-2.274ZM278.814 21a2.249 2.249 0 0 0-2.263-2.274c-1.33 0-2.262 1.07-2.262 2.274s1.064 2.274 2.262 2.274c1.331.134 2.263-.936 2.263-2.274Zm5.722-3.478a2.249 2.249 0 0 0-2.262-2.274c-1.331 0-2.263 1.07-2.263 2.274a2.249 2.249 0 0 0 2.263 2.274c1.33 0 2.262-1.07 2.262-2.274Zm3.194 5.217a2.249 2.249 0 0 0-2.262-2.274c-1.33 0-2.263 1.07-2.263 2.274a2.249 2.249 0 0 0 2.263 2.274c1.198.134 2.262-.936 2.262-2.274Zm6.255-2.408a2.249 2.249 0 0 0-2.262-2.274c-1.33 0-2.262 1.07-2.262 2.274a2.249 2.249 0 0 0 2.262 2.274c1.198.134 2.262-.936 2.262-2.274Zm3.194 5.485a2.249 2.249 0 0 0-2.262-2.274c-1.33 0-2.262 1.07-2.262 2.274s1.064 2.274 2.262 2.274c1.198.134 2.262-.936 2.262-2.274Zm4.525-3.077c-1.33 0-2.262 1.07-2.262 2.274s1.065 2.274 2.262 2.274c1.198 0 2.263-1.07 2.263-2.274s-.932-2.274-2.263-2.274ZM296.914 0c-1.332 0-2.263 1.07-2.263 2.274s1.065 2.274 2.262 2.274c1.331 0 2.263-1.07 2.263-2.274S298.244 0 296.913 0Zm-6.123 14.848a2.249 2.249 0 0 0-2.262-2.274c-1.33 0-2.263 1.07-2.263 2.274a2.249 2.249 0 0 0 2.263 2.274c1.198.134 2.262-.936 2.262-2.274Zm6.522-1.471a2.249 2.249 0 0 0-2.263-2.274c-1.33 0-2.262 1.07-2.262 2.274s1.064 2.274 2.262 2.274 2.263-1.07 2.263-2.274Zm3.327 5.752a2.249 2.249 0 0 0-2.263-2.274c-1.33 0-2.262 1.07-2.262 2.274a2.249 2.249 0 0 0 2.262 2.274c1.198 0 2.263-1.07 2.263-2.274ZM287.065 48.69a2.249 2.249 0 0 0-2.262-2.274c-1.198 0-2.263 1.07-2.263 2.274s1.065 2.274 2.263 2.274a2.249 2.249 0 0 0 2.262-2.274Zm55.097 7.09a2.249 2.249 0 0 0 2.263 2.274c1.197 0 2.262-1.07 2.262-2.274a2.249 2.249 0 0 0-2.262-2.275c-1.198 0-2.263 1.07-2.263 2.275Zm-6.122 0a2.249 2.249 0 0 0 2.263 2.274c1.198 0 2.262-1.07 2.262-2.274a2.249 2.249 0 0 0-2.262-2.275c-1.198 0-2.263 1.07-2.263 2.275Zm-.532 6.955a2.249 2.249 0 0 0 2.262 2.274c1.198 0 2.263-1.07 2.263-2.274a2.249 2.249 0 0 0-2.263-2.274 2.249 2.249 0 0 0-2.262 2.274Zm6.255-.133a2.249 2.249 0 0 0 2.262 2.274c1.331 0 2.263-1.07 2.263-2.274s-1.065-2.274-2.263-2.274c-1.33 0-2.262.936-2.262 2.274Zm-12.51.133a2.249 2.249 0 0 0 2.262 2.274c1.331 0 2.263-1.07 2.263-2.274s-1.065-2.274-2.263-2.274c-1.197-.133-2.262.937-2.262 2.274Zm-6.388.134a2.249 2.249 0 0 0 2.262 2.274c1.331 0 2.263-1.07 2.263-2.274a2.249 2.249 0 0 0-2.263-2.274c-1.197-.134-2.262.936-2.262 2.274Zm-2.928 6.287a2.249 2.249 0 0 0 2.262 2.274c1.331 0 2.263-1.07 2.263-2.274a2.249 2.249 0 0 0-2.263-2.274c-1.197 0-2.262 1.07-2.262 2.274Zm7.054 0a2.249 2.249 0 0 0 2.262 2.274c1.33 0 2.262-1.07 2.262-2.274a2.249 2.249 0 0 0-2.262-2.274c-1.198 0-2.262 1.07-2.262 2.274Zm6.654 0a2.249 2.249 0 0 0 2.262 2.274c1.331 0 2.263-1.07 2.263-2.274a2.249 2.249 0 0 0-2.263-2.274c-1.197 0-2.262 1.07-2.262 2.274Zm6.521 0a2.249 2.249 0 0 0 2.262 2.274c1.331 0 2.263-1.07 2.263-2.274a2.249 2.249 0 0 0-2.263-2.274c-1.33 0-2.262 1.07-2.262 2.274Zm-2.662 6.287a2.249 2.249 0 0 0 2.263 2.274c1.33 0 2.262-1.07 2.262-2.274a2.249 2.249 0 0 0-2.262-2.274c-1.198-.134-2.263.936-2.263 2.274Zm-6.92-.134a2.249 2.249 0 0 0 2.262 2.274c1.331 0 2.263-1.07 2.263-2.274s-1.065-2.274-2.263-2.274c-1.197-.133-2.262.937-2.262 2.274Zm-7.32-.267a2.249 2.249 0 0 0 2.263 2.274c1.33 0 2.262-1.07 2.262-2.274a2.249 2.249 0 0 0-2.262-2.274 2.249 2.249 0 0 0-2.263 2.274Zm-7.852-.535a2.249 2.249 0 0 0 2.263 2.274c1.197 0 2.262-1.07 2.262-2.274a2.249 2.249 0 0 0-2.262-2.274 2.249 2.249 0 0 0-2.263 2.274Zm-3.06-5.618a2.249 2.249 0 0 0 2.262 2.274c1.197 0 2.262-1.07 2.262-2.274s-1.065-2.274-2.262-2.274c-1.198 0-2.263 1.07-2.263 2.274Zm-5.99 4.013a2.249 2.249 0 0 0 2.263 2.274c1.33 0 2.262-1.07 2.262-2.274a2.249 2.249 0 0 0-2.262-2.274 2.249 2.249 0 0 0-2.263 2.274Zm-3.46 7.357a2.249 2.249 0 0 0 2.263 2.274c1.33 0 2.262-1.07 2.262-2.274a2.249 2.249 0 0 0-2.262-2.274c-1.331-.134-2.263.936-2.263 2.274Zm6.654-2.007a2.249 2.249 0 0 0 2.263 2.274c1.33 0 2.262-1.07 2.262-2.274a2.249 2.249 0 0 0-2.262-2.274 2.249 2.249 0 0 0-2.263 2.274Zm3.061 5.35a2.249 2.249 0 0 0 2.263 2.275c1.33 0 2.262-1.07 2.262-2.274a2.249 2.249 0 0 0-2.262-2.274c-1.198-.134-2.263.936-2.263 2.274Zm5.856-3.745a2.249 2.249 0 0 0 2.263 2.274c1.33 0 2.262-1.07 2.262-2.274a2.249 2.249 0 0 0-2.262-2.274c-1.198 0-2.263 1.07-2.263 2.274Zm3.061 5.485a2.249 2.249 0 0 0 2.263 2.274c1.197 0 2.262-1.07 2.262-2.274a2.249 2.249 0 0 0-2.262-2.274 2.249 2.249 0 0 0-2.263 2.274Zm4.924-4.682a2.249 2.249 0 0 0 2.263 2.274c1.197 0 2.262-1.07 2.262-2.274a2.249 2.249 0 0 0-2.262-2.274c-1.198 0-2.263 1.07-2.263 2.274Zm7.586.535a2.249 2.249 0 0 0 2.263 2.274c1.197 0 2.262-1.07 2.262-2.274a2.249 2.249 0 0 0-2.262-2.274 2.249 2.249 0 0 0-2.263 2.274Zm-.133 11.37a2.249 2.249 0 0 0 2.262 2.274c1.331 0 2.263-1.07 2.263-2.274a2.249 2.249 0 0 0-2.263-2.274 2.249 2.249 0 0 0-2.262 2.274Zm-9.316-1.872a2.249 2.249 0 0 0 2.262 2.274c1.331 0 2.263-1.07 2.263-2.274s-1.065-2.275-2.263-2.275c-1.33-.133-2.262.937-2.262 2.275Zm-5.723 3.477a2.249 2.249 0 0 0 2.263 2.274c1.33 0 2.262-1.07 2.262-2.274a2.249 2.249 0 0 0-2.262-2.274c-1.331 0-2.263 1.07-2.263 2.274Zm-3.194-5.35a2.249 2.249 0 0 0 2.263 2.274c1.33 0 2.262-1.07 2.262-2.274a2.249 2.249 0 0 0-2.262-2.274c-1.198 0-2.263 1.07-2.263 2.274Zm-6.255 2.541a2.249 2.249 0 0 0 2.263 2.274c1.198 0 2.262-1.07 2.262-2.274s-1.064-2.274-2.262-2.274a2.249 2.249 0 0 0-2.263 2.274Zm-3.194-5.484a2.249 2.249 0 0 0 2.263 2.274c1.197 0 2.262-1.07 2.262-2.274s-1.065-2.274-2.262-2.274a2.249 2.249 0 0 0-2.263 2.274Zm6.388 10.969a2.249 2.249 0 0 0 2.263 2.274c1.198 0 2.262-1.07 2.262-2.274a2.249 2.249 0 0 0-2.262-2.274 2.249 2.249 0 0 0-2.263 2.274Zm-6.52 1.471a2.249 2.249 0 0 0 2.262 2.274c1.197 0 2.262-1.07 2.262-2.274s-1.065-2.274-2.262-2.274c-1.198 0-2.263 1.07-2.263 2.274Zm-3.328-5.752a2.249 2.249 0 0 0 2.262 2.274c1.198 0 2.263-1.07 2.263-2.274a2.249 2.249 0 0 0-2.263-2.274 2.249 2.249 0 0 0-2.262 2.274Zm13.575-29.562a2.249 2.249 0 0 0 2.262 2.274c1.331 0 2.263-1.07 2.263-2.274a2.249 2.249 0 0 0-2.263-2.274c-1.198-.134-2.262.936-2.262 2.274Zm13.574-7.223a2.249 2.249 0 0 0 2.263 2.274c1.198 0 2.262-1.07 2.262-2.274a2.249 2.249 0 0 0-2.262-2.275c-1.198 0-2.263 1.07-2.263 2.275Zm-6.121 0a2.249 2.249 0 0 0 2.262 2.274c1.198 0 2.262-1.07 2.262-2.274a2.249 2.249 0 0 0-2.262-2.275c-1.198 0-2.262 1.07-2.262 2.275Zm-6.122 0a2.249 2.249 0 0 0 2.262 2.274c1.198 0 2.262-1.07 2.262-2.274a2.249 2.249 0 0 0-2.262-2.275c-1.198 0-2.262 1.07-2.262 2.275Zm-61.087 0a2.249 2.249 0 0 0 2.263 2.274c1.33 0 2.262-1.07 2.262-2.274a2.249 2.249 0 0 0-2.262-2.275c-1.198 0-2.263 1.07-2.263 2.275Zm6.122 0a2.249 2.249 0 0 0 2.263 2.274c1.33 0 2.262-1.07 2.262-2.274a2.249 2.249 0 0 0-2.262-2.275c-1.198 0-2.263 1.07-2.263 2.275Zm2.928 4.548c-1.33 0-2.262 1.07-2.262 2.274a2.249 2.249 0 0 0 2.262 2.274c1.331 0 2.263-1.07 2.263-2.274s-1.065-2.274-2.263-2.274Zm-10.38 4.949c-1.331 0-2.263 1.07-2.263 2.274a2.249 2.249 0 0 0 2.263 2.274c1.33 0 2.262-1.07 2.262-2.274.133-1.204-.932-2.274-2.262-2.274Zm16.635-4.95c-1.33 0-2.262 1.07-2.262 2.275 0 1.203 1.064 2.274 2.262 2.274 1.331 0 2.263-1.07 2.263-2.274s-1.065-2.274-2.263-2.274Zm6.255.134c-1.33 0-2.262 1.07-2.262 2.274a2.249 2.249 0 0 0 2.262 2.274c1.198 0 2.263-1.07 2.263-2.274.133-1.204-.932-2.274-2.263-2.274Zm2.928 6.421c-1.33 0-2.262 1.07-2.262 2.274a2.249 2.249 0 0 0 2.262 2.274c1.198 0 2.263-1.07 2.263-2.274.133-1.204-.932-2.274-2.263-2.274Zm-6.92 0c-1.331 0-2.263 1.07-2.263 2.274a2.249 2.249 0 0 0 2.263 2.274c1.197 0 2.262-1.07 2.262-2.274s-1.065-2.274-2.262-2.274Zm-6.655 0c-1.33 0-2.262 1.07-2.262 2.274a2.249 2.249 0 0 0 2.262 2.274c1.331 0 2.263-1.07 2.263-2.274s-1.065-2.274-2.263-2.274Zm-9.05 19.798c-1.33 0-2.262 1.07-2.262 2.274a2.249 2.249 0 0 0 2.263 2.274c1.33 0 2.262-1.07 2.262-2.274.133-1.204-.932-2.274-2.262-2.274Zm5.058-13.645c-1.331 0-2.263 1.07-2.263 2.274a2.249 2.249 0 0 0 2.263 2.274c1.33 0 2.262-1.07 2.262-2.274.133-1.204-.931-2.274-2.262-2.274Zm6.92-.133c-1.33 0-2.262 1.07-2.262 2.274s1.065 2.274 2.262 2.274c1.198 0 2.263-1.07 2.263-2.274s-.932-2.274-2.263-2.274Zm7.32-.134c-1.33 0-2.262 1.07-2.262 2.274a2.249 2.249 0 0 0 2.262 2.274c1.33 0 2.262-1.07 2.262-2.274.134-1.338-.931-2.274-2.262-2.274Zm7.985-.669c-1.33 0-2.262 1.07-2.262 2.274a2.249 2.249 0 0 0 2.262 2.274c1.198 0 2.263-1.07 2.263-2.274s-1.065-2.274-2.263-2.274Zm2.928-5.484c-1.33 0-2.262 1.07-2.262 2.274s1.064 2.274 2.262 2.274c1.33 0 2.262-1.07 2.262-2.274s-.931-2.274-2.262-2.274Zm5.989 4.013c-1.331 0-2.263 1.07-2.263 2.274a2.249 2.249 0 0 0 2.263 2.274c1.33 0 2.262-1.07 2.262-2.274.133-1.338-.931-2.274-2.262-2.274Zm7.053 1.337c-1.33 0-2.262 1.07-2.262 2.274a2.249 2.249 0 0 0 2.262 2.274c1.198 0 2.263-1.07 2.263-2.274s-.932-2.274-2.263-2.274Zm-3.46 5.886c-1.33 0-2.262 1.07-2.262 2.274a2.249 2.249 0 0 0 2.262 2.274c1.331 0 2.263-1.07 2.263-2.274s-1.065-2.274-2.263-2.274Zm-6.654-1.873c-1.331 0-2.263 1.07-2.263 2.274a2.249 2.249 0 0 0 2.263 2.274c1.33 0 2.262-1.07 2.262-2.274a2.249 2.249 0 0 0-2.262-2.274Zm-3.194 5.217c-1.331 0-2.263 1.07-2.263 2.274a2.249 2.249 0 0 0 2.263 2.274c1.33 0 2.262-1.07 2.262-2.274.133-1.204-.931-2.274-2.262-2.274Zm-5.723-3.612c-1.33 0-2.262 1.07-2.262 2.274a2.249 2.249 0 0 0 2.262 2.274c1.331 0 2.263-1.07 2.263-2.274 0-1.203-1.065-2.274-2.263-2.274Zm-3.06 5.351c-1.332 0-2.263 1.07-2.263 2.274a2.249 2.249 0 0 0 2.262 2.274c1.331 0 2.263-1.07 2.263-2.274s-1.065-2.274-2.263-2.274Zm-5.058-4.548c-1.33 0-2.262 1.07-2.262 2.274a2.249 2.249 0 0 0 2.262 2.274c1.33 0 2.262-1.07 2.262-2.274.133-1.204-.931-2.274-2.262-2.274Zm-7.453.401c-1.33 0-2.262 1.07-2.262 2.274a2.249 2.249 0 0 0 2.262 2.274c1.331 0 2.263-1.07 2.263-2.274s-1.065-2.274-2.263-2.274Zm.666 10.033c-1.331 0-2.263 1.07-2.263 2.274s1.065 2.274 2.263 2.274c1.33 0 2.262-1.07 2.262-2.274s-.932-2.274-2.262-2.274Zm8.783-.535c-1.33 0-2.262 1.07-2.262 2.274s1.064 2.274 2.262 2.274c1.331 0 2.263-1.07 2.263-2.274s-.932-2.274-2.263-2.274Zm5.723 3.611c-1.331 0-2.263 1.07-2.263 2.274a2.249 2.249 0 0 0 2.263 2.274c1.33 0 2.262-1.07 2.262-2.274 0-1.203-.931-2.274-2.262-2.274Zm3.06-5.35c-1.33 0-2.262 1.07-2.262 2.274a2.249 2.249 0 0 0 2.263 2.274c1.33 0 2.262-1.07 2.262-2.274.133-1.204-.931-2.274-2.262-2.274Zm6.389 2.408c-1.33 0-2.262 1.07-2.262 2.274 0 1.203 1.064 2.274 2.262 2.274 1.33 0 2.262-1.07 2.262-2.274s-1.064-2.274-2.262-2.274Zm3.194-5.485c-1.33 0-2.262 1.07-2.262 2.274s1.064 2.274 2.262 2.274c1.33 0 2.262-1.07 2.262-2.274s-1.064-2.274-2.262-2.274Zm6.787.803c-1.33 0-2.262 1.07-2.262 2.274a2.249 2.249 0 0 0 2.262 2.274c1.198 0 2.263-1.07 2.263-2.274s-.932-2.274-2.263-2.274Zm0 12.306c-1.33 0-2.262 1.07-2.262 2.274a2.249 2.249 0 0 0 2.262 2.274c1.198 0 2.263-1.07 2.263-2.274 0-1.337-.932-2.274-2.263-2.274Zm-13.175-2.14c-1.33 0-2.263 1.07-2.263 2.274a2.249 2.249 0 0 0 2.263 2.274c1.33 0 2.262-1.07 2.262-2.274s-1.064-2.274-2.262-2.274Zm6.521 1.605c-1.33 0-2.262 1.07-2.262 2.274s1.064 2.274 2.262 2.274c1.33 0 2.263-1.07 2.263-2.274s-1.065-2.274-2.263-2.274Zm3.327-5.752c-1.33 0-2.262 1.07-2.262 2.274a2.249 2.249 0 0 0 2.262 2.274c1.331 0 2.263-1.07 2.263-2.274a2.249 2.249 0 0 0-2.263-2.274Zm-13.574-29.696c-1.331 0-2.263 1.07-2.263 2.274a2.249 2.249 0 0 0 2.263 2.274c1.197 0 2.262-1.07 2.262-2.274s-1.065-2.274-2.262-2.274Zm-15.97-4.815a2.249 2.249 0 0 0 2.262 2.274c1.33 0 2.262-1.07 2.262-2.274a2.249 2.249 0 0 0-2.262-2.275c-1.198 0-2.263 1.07-2.263 2.275Zm6.121 0a2.249 2.249 0 0 0 2.263 2.274c1.33 0 2.262-1.07 2.262-2.274a2.249 2.249 0 0 0-2.262-2.275c-1.198 0-2.263 1.07-2.263 2.275Zm6.122 0a2.249 2.249 0 0 0 2.263 2.274c1.33 0 2.262-1.07 2.262-2.274a2.249 2.249 0 0 0-2.262-2.275c-1.331 0-2.263 1.07-2.263 2.275ZM124.036 8.16a2.249 2.249 0 0 0-2.263-2.274c-1.33 0-2.262 1.07-2.262 2.274a2.249 2.249 0 0 0 2.262 2.274c1.198.134 2.262-.937 2.262-2.274Zm-13.176 8.962a2.249 2.249 0 0 0-2.262-2.274c-1.198 0-2.263 1.07-2.263 2.274a2.249 2.249 0 0 0 2.263 2.274 2.249 2.249 0 0 0 2.262-2.274Zm14.64 6.688a2.249 2.249 0 0 0-2.263-2.274c-1.33 0-2.262 1.07-2.262 2.274a2.249 2.249 0 0 0 2.262 2.274c1.198.134 2.262-.936 2.262-2.274Zm0 6.421a2.249 2.249 0 0 0-2.263-2.274c-1.33 0-2.262 1.07-2.262 2.274a2.249 2.249 0 0 0 2.262 2.274c1.198.134 2.262-.936 2.262-2.274Zm6.388-12.708a2.249 2.249 0 0 0-2.263-2.274c-1.33 0-2.262 1.07-2.262 2.274s1.064 2.274 2.262 2.274a2.249 2.249 0 0 0 2.263-2.274Zm0 6.421a2.249 2.249 0 0 0-2.263-2.274c-1.33 0-2.262 1.07-2.262 2.274s1.064 2.274 2.262 2.274 2.263-1.07 2.263-2.274Zm0 6.287a2.249 2.249 0 0 0-2.263-2.274c-1.33 0-2.262 1.07-2.262 2.274a2.249 2.249 0 0 0 2.262 2.274c1.198.134 2.263-.936 2.263-2.274Zm6.388-12.708a2.249 2.249 0 0 0-2.263-2.274c-1.198 0-2.262 1.07-2.262 2.274s1.064 2.274 2.262 2.274a2.249 2.249 0 0 0 2.263-2.274Zm0 6.421a2.249 2.249 0 0 0-2.263-2.274c-1.198 0-2.262 1.07-2.262 2.274s1.064 2.274 2.262 2.274 2.263-1.07 2.263-2.274Zm0 6.287a2.249 2.249 0 0 0-2.263-2.274c-1.198 0-2.262 1.07-2.262 2.274a2.249 2.249 0 0 0 2.262 2.274 2.249 2.249 0 0 0 2.263-2.274Zm0 6.42a2.249 2.249 0 0 0-2.263-2.273c-1.198 0-2.262 1.07-2.262 2.274s1.064 2.274 2.262 2.274a2.249 2.249 0 0 0 2.263-2.274Zm0 6.422a2.249 2.249 0 0 0-2.263-2.274c-1.198 0-2.262 1.07-2.262 2.274a2.249 2.249 0 0 0 2.262 2.274 2.249 2.249 0 0 0 2.263-2.274Zm0 6.42a2.249 2.249 0 0 0-2.263-2.274c-1.198 0-2.262 1.07-2.262 2.275 0 1.203 1.064 2.274 2.262 2.274s2.263-1.07 2.263-2.274Zm0 6.421a2.249 2.249 0 0 0-2.263-2.274c-1.198 0-2.262 1.07-2.262 2.274a2.249 2.249 0 0 0 2.262 2.274c1.198 0 2.263-1.07 2.263-2.274Zm0 6.287a2.249 2.249 0 0 0-2.263-2.274c-1.198 0-2.262 1.07-2.262 2.274s1.064 2.274 2.262 2.274a2.249 2.249 0 0 0 2.263-2.274Zm0 6.421a2.249 2.249 0 0 0-2.263-2.274c-1.198 0-2.262 1.07-2.262 2.274a2.249 2.249 0 0 0 2.262 2.274 2.249 2.249 0 0 0 2.263-2.274Zm0 6.42a2.249 2.249 0 0 0-2.263-2.273c-1.198 0-2.262 1.07-2.262 2.274s1.064 2.274 2.262 2.274a2.249 2.249 0 0 0 2.263-2.274Zm0 6.422a2.249 2.249 0 0 0-2.263-2.274c-1.198 0-2.262 1.07-2.262 2.274a2.249 2.249 0 0 0 2.262 2.274c1.198 0 2.263-1.07 2.263-2.274Zm0 6.42a2.249 2.249 0 0 0-2.263-2.274c-1.198 0-2.262 1.07-2.262 2.274s1.064 2.274 2.262 2.274 2.263-1.07 2.263-2.274Zm0 6.287a2.249 2.249 0 0 0-2.263-2.274c-1.198 0-2.262 1.07-2.262 2.274a2.249 2.249 0 0 0 2.262 2.274 2.249 2.249 0 0 0 2.263-2.274Zm6.388-76.648a2.249 2.249 0 0 0-2.263-2.274c-1.33 0-2.262 1.07-2.262 2.274s1.064 2.274 2.262 2.274c1.331 0 2.263-.936 2.263-2.274Zm0 6.421a2.249 2.249 0 0 0-2.263-2.274c-1.33 0-2.262 1.07-2.262 2.274s1.064 2.274 2.262 2.274c1.331 0 2.263-1.07 2.263-2.274Zm0 6.287a2.249 2.249 0 0 0-2.263-2.274c-1.33 0-2.262 1.07-2.262 2.274a2.249 2.249 0 0 0 2.262 2.274c1.331.134 2.263-.936 2.263-2.274Zm0 6.42a2.249 2.249 0 0 0-2.263-2.273c-1.33 0-2.262 1.07-2.262 2.274s1.064 2.274 2.262 2.274c1.331.134 2.263-.936 2.263-2.274Zm0 6.422a2.249 2.249 0 0 0-2.263-2.274c-1.33 0-2.262 1.07-2.262 2.274a2.249 2.249 0 0 0 2.262 2.274c1.331.134 2.263-.937 2.263-2.274Zm0 6.42a2.249 2.249 0 0 0-2.263-2.274c-1.33 0-2.262 1.07-2.262 2.275 0 1.203 1.064 2.274 2.262 2.274 1.331 0 2.263-1.07 2.263-2.274Zm0 6.421a2.249 2.249 0 0 0-2.263-2.274c-1.33 0-2.262 1.07-2.262 2.274a2.249 2.249 0 0 0 2.262 2.274c1.331 0 2.263-1.07 2.263-2.274Zm0 6.287a2.249 2.249 0 0 0-2.263-2.274c-1.33 0-2.262 1.07-2.262 2.274s1.064 2.274 2.262 2.274c1.331.134 2.263-.936 2.263-2.274Zm0 6.421a2.249 2.249 0 0 0-2.263-2.274c-1.33 0-2.262 1.07-2.262 2.274a2.249 2.249 0 0 0 2.262 2.274c1.331.134 2.263-.936 2.263-2.274Zm0 6.42a2.249 2.249 0 0 0-2.263-2.273c-1.33 0-2.262 1.07-2.262 2.274s1.064 2.274 2.262 2.274c1.331 0 2.263-.936 2.263-2.274Zm0 6.422a2.249 2.249 0 0 0-2.263-2.274c-1.33 0-2.262 1.07-2.262 2.274a2.249 2.249 0 0 0 2.262 2.274c1.331 0 2.263-1.07 2.263-2.274Zm0 6.42a2.249 2.249 0 0 0-2.263-2.274c-1.33 0-2.262 1.07-2.262 2.274s1.064 2.274 2.262 2.274c1.331 0 2.263-1.07 2.263-2.274Zm0 6.287a2.249 2.249 0 0 0-2.263-2.274c-1.33 0-2.262 1.07-2.262 2.274a2.249 2.249 0 0 0 2.262 2.274c1.331.134 2.263-.936 2.263-2.274Zm6.52-76.648a2.249 2.249 0 0 0-2.262-2.274c-1.33 0-2.262 1.07-2.262 2.274a2.249 2.249 0 0 0 2.262 2.274c1.198 0 2.263-1.07 2.263-2.274Zm0 6.287a2.249 2.249 0 0 0-2.262-2.274c-1.33 0-2.262 1.07-2.262 2.274a2.249 2.249 0 0 0 2.262 2.274c1.198.134 2.263-.936 2.263-2.274Zm0 6.421a2.249 2.249 0 0 0-2.262-2.274c-1.33 0-2.262 1.07-2.262 2.274a2.249 2.249 0 0 0 2.262 2.274c1.198.134 2.263-.936 2.263-2.274Zm0 6.42a2.249 2.249 0 0 0-2.262-2.273c-1.33 0-2.262 1.07-2.262 2.274a2.249 2.249 0 0 0 2.262 2.274 2.249 2.249 0 0 0 2.263-2.274Zm0 6.422a2.249 2.249 0 0 0-2.262-2.274c-1.33 0-2.262 1.07-2.262 2.274a2.249 2.249 0 0 0 2.262 2.274c1.198 0 2.263-1.07 2.263-2.274Zm0 6.42a2.249 2.249 0 0 0-2.262-2.274c-1.33 0-2.262 1.07-2.262 2.275a2.249 2.249 0 0 0 2.262 2.274c1.198 0 2.263-1.07 2.263-2.274Zm0 6.288a2.249 2.249 0 0 0-2.262-2.275c-1.33 0-2.262 1.07-2.262 2.275a2.249 2.249 0 0 0 2.262 2.274c1.198.133 2.263-.937 2.263-2.274Zm0 6.42a2.249 2.249 0 0 0-2.262-2.274c-1.33 0-2.262 1.07-2.262 2.274a2.249 2.249 0 0 0 2.262 2.274c1.198.134 2.263-.936 2.263-2.274Zm0 6.421a2.249 2.249 0 0 0-2.262-2.274c-1.33 0-2.262 1.07-2.262 2.274a2.249 2.249 0 0 0 2.262 2.274 2.249 2.249 0 0 0 2.263-2.274Zm0 6.42a2.249 2.249 0 0 0-2.262-2.273c-1.33 0-2.262 1.07-2.262 2.274a2.249 2.249 0 0 0 2.262 2.274c1.198 0 2.263-1.07 2.263-2.274Zm0 6.288a2.249 2.249 0 0 0-2.262-2.274c-1.33 0-2.262 1.07-2.262 2.274a2.249 2.249 0 0 0 2.262 2.274c1.198.134 2.263-.936 2.263-2.274Zm0 6.42a2.249 2.249 0 0 0-2.262-2.273c-1.33 0-2.262 1.07-2.262 2.274a2.249 2.249 0 0 0 2.262 2.274c1.198.133 2.263-.937 2.263-2.274Zm7.587 12.976a2.249 2.249 0 0 0-2.263-2.274c-1.33 0-2.262 1.07-2.262 2.274a2.249 2.249 0 0 0 2.262 2.274c1.198 0 2.263-1.07 2.263-2.274Zm6.654-9.497a2.249 2.249 0 0 0-2.262-2.274c-1.331 0-2.263 1.07-2.263 2.274 0 1.203 1.065 2.274 2.263 2.274a2.249 2.249 0 0 0 2.262-2.274Z" fill="#FFF"/>
  </g>
</svg>
